<svg width="24" height="24" viewBox="0 0 24 24" fill="none" xmlns="http://www.w3.org/2000/svg">
<g id="vibration">
<path id="vibration_2" d="M15.9844 18.9844V5.01562H8.01562V18.9844H15.9844ZM16.5 3C16.9375 3 17.2969 3.14062 17.5781 3.42188C17.8594 3.70312 18 4.0625 18 4.5V19.5C18 19.9375 17.8594 20.2969 17.5781 20.5781C17.2969 20.8594 16.9375 21 16.5 21H7.5C7.0625 21 6.70312 20.8594 6.42188 20.5781C6.14062 20.2969 6 19.9375 6 19.5V4.5C6 4.0625 6.14062 3.70312 6.42188 3.42188C6.70312 3.14062 7.0625 3 7.5 3H16.5ZM18.9844 17.0156V6.98438H21V17.0156H18.9844ZM21.9844 9H24V15H21.9844V9ZM3 17.0156V6.98438H5.01562V17.0156H3ZM0 15V9H2.01562V15H0Z" fill="black"/>
</g>
</svg>
